<svg xmlns="http://www.w3.org/2000/svg" viewBox="0 0 10 10" shape-rendering="crispEdges">
  <rect x="1" y="0" width="2" height="1" fill="#FF8FAB"/>
  <rect x="6" y="0" width="2" height="1" fill="#FF8FAB"/>
  <rect x="1" y="1" width="1" height="1" fill="#FF8FAB"/>
  <rect x="2" y="1" width="1" height="1" fill="#FFB3C6"/>
  <rect x="3" y="1" width="1" height="1" fill="#FF8FAB"/>
  <rect x="5" y="1" width="1" height="1" fill="#FF8FAB"/>
  <rect x="6" y="1" width="1" height="1" fill="#FFB3C6"/>
  <rect x="7" y="1" width="1" height="1" fill="#FF8FAB"/>
  <rect x="2" y="2" width="2" height="1" fill="#FF8FAB"/>
  <rect x="5" y="2" width="2" height="1" fill="#FF8FAB"/>
  <rect x="2" y="3" width="6" height="1" fill="#F8F0E8"/>
  <rect x="1" y="4" width="1" height="1" fill="#F8F0E8"/>
  <rect x="2" y="4" width="1" height="1" fill="#2D2D2D"/>
  <rect x="3" y="4" width="4" height="1" fill="#F8F0E8"/>
  <rect x="7" y="4" width="1" height="1" fill="#2D2D2D"/>
  <rect x="8" y="4" width="1" height="1" fill="#F8F0E8"/>
  <rect x="1" y="5" width="8" height="1" fill="#F8F0E8"/>
  <rect x="1" y="6" width="3" height="1" fill="#F8F0E8"/>
  <rect x="4" y="6" width="1" height="1" fill="#FF6B9D"/>
  <rect x="5" y="6" width="4" height="1" fill="#F8F0E8"/>
  <rect x="1" y="7" width="8" height="1" fill="#F8F0E8"/>
  <rect x="2" y="8" width="1" height="1" fill="#C0B8B0"/>
  <rect x="3" y="8" width="4" height="1" fill="#F8F0E8"/>
  <rect x="7" y="8" width="1" height="1" fill="#C0B8B0"/>
  <rect x="3" y="9" width="4" height="1" fill="#C0B8B0"/>
</svg>
